HIERARCHY
ROOT Hips
{
	OFFSET 0.000000 0.000000 0.000000 
	CHANNELS 6 Xposition Yposition Zposition Zrotation Yrotation Xrotation
	JOINT LeftUpLeg
	{
		OFFSET 1.363060 -1.794630 0.839290 
		CHANNELS 3 Zrotation Yrotation Xrotation
		JOINT LeftLeg
		{
			OFFSET 2.448110 -6.726130 0.000000 
			CHANNELS 3 Zrotation Yrotation Xrotation
			JOINT LeftFoot
			{
				OFFSET 2.562200 -7.039590 0.000000 
				CHANNELS 3 Zrotation Yrotation Xrotation
				JOINT LeftToeBase
				{
					OFFSET 0.157640 -0.433110 2.322550 
					CHANNELS 3 Zrotation Yrotation Xrotation
					End Site
					{
						OFFSET 0.000000 0.000000 0.000000 
					}
				}
			}
		}
	}
	JOINT RightUpLeg
	{
		OFFSET -1.305520 -1.794630 0.839290 
		CHANNELS 3 Zrotation Yrotation Xrotation
		JOINT RightLeg
		{
			OFFSET -2.542530 -6.985550 0.000000 
			CHANNELS 3 Zrotation Yrotation Xrotation
			JOINT RightFoot
			{
				OFFSET -2.568260 -7.056230 0.000000 
				CHANNELS 3 Zrotation Yrotation Xrotation
				JOINT RightToeBase
				{
					OFFSET -0.164730 -0.452590 2.363150 
					CHANNELS 3 Zrotation Yrotation Xrotation
					End Site
					{
						OFFSET 0.000000 0.000000 0.000000 
					}
				}
			}
		}
	}
	JOINT Spine
	{
		OFFSET 0.028270 2.035590 -0.193380 
		CHANNELS 3 Zrotation Yrotation Xrotation
		JOINT Spine1
		{
			OFFSET 0.056720 2.048850 -0.042750 
			CHANNELS 3 Zrotation Yrotation Xrotation
			JOINT Neck1
			{
				OFFSET -0.054170 1.746240 0.172020 
				CHANNELS 3 Zrotation Yrotation Xrotation
				JOINT Head
				{
					OFFSET 0.104070 1.761360 -0.123970 
					CHANNELS 3 Zrotation Yrotation Xrotation
					End Site
					{
						OFFSET 0.000000 0.000000 0.000000 
					}
				}
			}
			JOINT LeftArm
			{
				OFFSET 3.362410 1.200890 -0.311210 
				CHANNELS 3 Zrotation Yrotation Xrotation
				JOINT LeftForeArm
				{
					OFFSET 4.983000 -0.000000 -0.000000 
					CHANNELS 3 Zrotation Yrotation Xrotation
					JOINT LeftHand
					{
						OFFSET 3.483560 -0.000000 -0.000000 
						CHANNELS 3 Zrotation Yrotation Xrotation
						JOINT LeftHandIndex1
						{
							OFFSET 0.715260 -0.000000 -0.000000 
							CHANNELS 3 Zrotation Yrotation Xrotation
							End Site
							{
								OFFSET 0.000000 0.000000 0.000000 
							}
						}
					}
				}
			}
			JOINT RightArm
			{
				OFFSET -3.136600 1.374050 -0.404650 
				CHANNELS 3 Zrotation Yrotation Xrotation
				JOINT RightForeArm
				{
					OFFSET -5.241900 -0.000000 -0.000000 
					CHANNELS 3 Zrotation Yrotation Xrotation
					JOINT RightHand
					{
						OFFSET -3.444170 -0.000000 -0.000000 
						CHANNELS 3 Zrotation Yrotation Xrotation
						JOINT RightHandIndex1
						{
							OFFSET -0.622530 -0.000000 -0.000000 
							CHANNELS 3 Zrotation Yrotation Xrotation
							End Site
							{
								OFFSET 0.000000 0.000000 0.000000 
							}
						}
					}
				}
			}
		}
	}
}
MOTION
Frames: 6
Frame Time: 0.041667
0.560052 18.243484 0.569370 -3.070649 2.814529 41.217380 23.750408 -57.866691 -40.231244 -1.332536 0.460067 10.131842 -1.820245 29.687767 -46.248662 5.236500 13.645200 41.834500 3.411198 32.632857 -35.487840 2.409227 1.068909 0.721137 1.603156 -16.979152 -26.307151 -7.454400 -15.702900 50.572700 12.886349 3.251428 -17.433082 -3.000009 0.562390 -16.810798 -5.121367 0.283886 -9.825877 -2.971200 -0.158200 -2.164300 -83.034909 -22.200866 54.317663 13.985724 -20.563135 -2.060220 1.629785 1.017257 18.157495 -7.125000 0.000000 0.000000 74.570799 17.927449 36.948124 -18.694025 23.365462 -2.785762 -0.428162 0.608422 42.483442 7.125000 0.000000 0.000000 
0.562056 18.243284 0.569971 -3.005471 2.794552 41.243218 23.673495 -57.857189 -40.241558 -1.338646 0.437274 10.079235 -1.939357 29.875621 -46.125199 5.177800 13.581300 41.585300 3.329849 32.601976 -35.516601 2.407186 1.062967 0.718647 1.586040 -16.922486 -26.339461 -7.476800 -15.720600 50.655400 12.811758 3.241295 -17.452280 -2.982878 0.563969 -16.781623 -5.184825 0.247346 -9.933947 -2.991400 -0.173800 -2.205900 -83.026487 -22.205560 54.374034 13.989214 -20.568058 -2.061996 1.632060 1.013957 18.065814 -7.125000 0.000000 0.000000 74.549892 17.879537 36.933569 -18.755608 23.439756 -2.805154 -0.425641 0.611062 42.431226 7.125000 0.000000 0.000000 
0.563359 18.243484 0.570572 -3.011795 2.814634 41.284774 23.638762 -57.765773 -40.250516 -1.343299 0.435586 10.040914 -1.971917 29.864282 -46.033590 5.157800 13.559300 41.500000 3.339131 32.593659 -35.547085 2.407278 1.061234 0.717992 1.585344 -16.924070 -26.342810 -7.482900 -15.725400 50.677800 12.803928 3.258960 -17.544703 -2.999511 0.564600 -16.781063 -5.213631 0.243545 -9.970712 -3.002200 -0.174300 -2.226800 -83.023749 -22.126577 54.372987 13.999611 -20.581991 -2.065306 1.640136 1.007266 18.019627 -7.125000 0.000000 0.000000 74.570142 17.801224 36.914737 -18.797962 23.489572 -2.817900 -0.423071 0.607747 42.436174 7.125000 0.000000 0.000000 
0.564862 18.243584 0.571875 -2.978343 2.809321 41.284614 23.604054 -57.790190 -40.212240 -1.347695 0.418125 10.008005 -1.909818 29.768461 -46.094408 5.192900 13.597800 41.649500 3.313893 32.574402 -35.541515 2.408950 1.060053 0.715494 1.606251 -17.000016 -26.341198 -7.464200 -15.710700 50.609100 12.718240 3.248961 -17.598907 -3.003829 0.561322 -16.809973 -5.229418 0.245764 -9.992949 -3.010800 -0.172900 -2.240300 -83.012501 -22.064115 54.379298 13.997517 -20.580020 -2.065051 1.643578 1.003162 17.968079 -7.125000 0.000000 0.000000 74.600623 17.733437 36.927181 -18.820080 23.516850 -2.824239 -0.419298 0.601469 42.403230 7.125000 0.000000 0.000000 
0.565863 18.243785 0.573378 -2.933620 2.753466 41.280240 23.518516 -57.802347 -40.156633 -1.352326 0.400449 9.979282 -1.913182 29.775136 -46.087568 5.197300 13.602600 41.668400 3.224973 32.572289 -35.537602 2.403687 1.055778 0.718636 1.533497 -16.755172 -26.424926 -7.535300 -15.766600 50.870900 12.664830 3.235828 -17.606703 -2.968887 0.563391 -16.822802 -5.249223 0.256334 -9.984964 -3.016500 -0.166700 -2.238600 -83.003160 -22.047875 54.394654 13.992912 -20.572489 -2.063351 1.640153 1.010874 17.883879 -7.125000 0.000000 0.000000 74.601669 17.695879 36.969207 -18.856097 23.561922 -2.835386 -0.416958 0.594028 42.361890 7.125000 0.000000 0.000000 
0.567066 18.243684 0.574279 -2.924967 2.754985 41.317862 23.573163 -57.808759 -40.175925 -1.356417 0.380231 9.921140 -1.912277 29.760739 -46.079940 5.193700 13.598700 41.653100 3.193876 32.558667 -35.569370 2.401522 1.051678 0.718767 1.504457 -16.660119 -26.460882 -7.556200 -15.782900 50.947800 12.673213 3.246218 -17.681737 -2.969148 0.564599 -16.827609 -5.168841 0.265538 -9.943756 -2.984400 -0.162700 -2.227900 -83.003236 -22.017717 54.393061 13.989052 -20.565942 -2.061648 1.633822 1.023417 17.802997 -7.125000 0.000000 0.000000 74.613873 17.649750 36.976476 -18.851386 23.556250 -2.834258 -0.415808 0.600528 42.337295 7.125000 0.000000 0.000000 
